<?xml version="1.0" standalone="no"?>
<!DOCTYPE svg PUBLIC "-//W3C//DTD SVG 20010904//EN"
 "http://www.w3.org/TR/2001/REC-SVG-20010904/DTD/svg10.dtd">
<svg version="1.0" xmlns="http://www.w3.org/2000/svg"
 width="880.000000pt" height="672.000000pt" viewBox="0 0 880.000000 672.000000"
 preserveAspectRatio="xMidYMid meet">

<g transform="translate(0.000000,672.000000) scale(0.100000,-0.100000)"
fill="#000000" stroke="none">
<path d="M4460 6410 c0 -5 -9 -10 -20 -10 -11 0 -20 -4 -20 -10 0 -15 29 -12
46 4 16 17 18 26 4 26 -5 0 -10 -4 -10 -10z"/>
<path d="M4620 6410 c0 -5 5 -10 10 -10 6 0 10 5 10 10 0 6 -4 10 -10 10 -5 0
-10 -4 -10 -10z"/>
<path d="M4391 6344 c-18 -21 -6 -30 14 -11 8 9 15 18 15 21 0 11 -15 5 -29
-10z"/>
<path d="M2960 6270 c0 -5 -11 -10 -25 -10 -28 0 -135 -99 -135 -125 0 -8 -4
-15 -10 -15 -6 0 -10 -35 -10 -86 0 -88 -10 -114 -44 -114 -9 0 -16 -4 -16
-10 0 -5 -9 -10 -20 -10 -11 0 -20 -4 -20 -10 0 -5 -9 -10 -20 -10 -11 0 -20
-4 -20 -10 0 -5 -9 -10 -20 -10 -11 0 -20 -4 -20 -10 0 -5 -9 -10 -20 -10 -11
0 -20 -4 -20 -10 0 -5 -9 -10 -20 -10 -11 0 -20 -4 -20 -10 0 -5 -8 -10 -18
-10 -10 0 -24 -9 -32 -20 -8 -11 -22 -20 -32 -20 -10 0 -18 -4 -18 -10 0 -5
-9 -10 -20 -10 -11 0 -20 -4 -20 -10 0 -5 -9 -10 -20 -10 -11 0 -20 -4 -20
-10 0 -5 -9 -10 -20 -10 -11 0 -20 -4 -20 -10 0 -5 -9 -10 -20 -10 -11 0 -20
-4 -20 -10 0 -5 -8 -10 -18 -10 -10 0 -24 -9 -32 -20 -8 -11 -26 -20 -40 -20
-14 0 -32 -9 -40 -20 -8 -11 -22 -20 -32 -20 -10 0 -18 -4 -18 -10 0 -5 -8
-10 -18 -10 -10 0 -24 -9 -32 -20 -8 -11 -22 -20 -32 -20 -10 0 -18 -4 -18
-10 0 -5 -9 -10 -20 -10 -11 0 -20 -4 -20 -10 0 -5 -9 -10 -20 -10 -11 0 -20
-4 -20 -10 0 -5 -9 -10 -20 -10 -11 0 -20 -4 -20 -10 0 -5 -9 -10 -20 -10 -11
0 -20 5 -20 10 0 6 -9 10 -20 10 -11 0 -20 5 -20 10 0 6 -9 10 -20 10 -11 0
-20 5 -20 10 0 6 -27 10 -60 10 -33 0 -60 -4 -60 -10 0 -5 -9 -10 -20 -10 -11
0 -20 -4 -20 -10 0 -5 -7 -10 -16 -10 -19 0 -44 -24 -44 -42 0 -8 -9 -20 -20
-28 -17 -12 -20 -26 -20 -92 0 -45 4 -78 10 -78 6 0 10 -9 10 -20 0 -11 5 -20
10 -20 6 0 10 -17 10 -38 0 -26 -6 -42 -20 -52 -11 -8 -20 -22 -20 -32 0 -10
-4 -18 -10 -18 -5 0 -10 -8 -10 -18 0 -10 -9 -24 -20 -32 -11 -8 -20 -22 -20
-32 0 -10 -4 -18 -10 -18 -5 0 -10 -9 -10 -20 0 -11 -4 -20 -10 -20 -5 0 -10
-8 -10 -18 0 -10 -9 -24 -20 -32 -11 -8 -20 -22 -20 -32 0 -10 -4 -18 -10 -18
-5 0 -10 -9 -10 -20 0 -11 -4 -20 -10 -20 -5 0 -10 -8 -10 -18 0 -10 -9 -24
-20 -32 -11 -8 -20 -22 -20 -32 0 -10 -4 -18 -10 -18 -5 0 -10 -9 -10 -20 0
-11 -4 -20 -10 -20 -5 0 -10 -8 -10 -18 0 -10 -9 -24 -20 -32 -11 -8 -20 -22
-20 -32 0 -10 -4 -18 -10 -18 -5 0 -10 -9 -10 -20 0 -11 -4 -20 -10 -20 -5 0
-10 -8 -10 -18 0 -10 -9 -24 -20 -32 -11 -8 -20 -22 -20 -32 0 -10 -4 -18 -10
-18 -5 0 -10 -9 -10 -20 0 -19 -7 -20 -90 -20 -53 0 -90 -4 -90 -10 0 -5 -7
-10 -15 -10 -19 0 -65 -44 -65 -62 0 -8 -9 -20 -20 -28 -17 -13 -20 -26 -20
-102 0 -52 4 -88 10 -88 6 0 10 -7 10 -15 0 -19 64 -85 82 -85 8 0 20 -9 28
-20 11 -15 26 -20 62 -20 47 0 48 -1 48 -30 0 -16 5 -30 10 -30 6 0 10 -13 10
-30 0 -16 5 -30 10 -30 6 0 10 -13 10 -30 0 -16 5 -30 10 -30 6 0 10 -13 10
-30 0 -16 5 -30 10 -30 6 0 10 -18 10 -40 0 -22 5 -40 10 -40 6 0 10 -13 10
-30 0 -16 5 -30 10 -30 6 0 10 -13 10 -30 0 -16 5 -30 10 -30 6 0 10 -13 10
-30 0 -16 5 -30 10 -30 6 0 10 -13 10 -30 0 -16 5 -30 10 -30 6 0 10 -13 10
-30 0 -16 5 -30 10 -30 6 0 10 -18 10 -40 0 -22 5 -40 10 -40 6 0 10 -13 10
-30 0 -16 5 -30 10 -30 6 0 10 -13 10 -29 0 -16 6 -32 13 -35 10 -5 10 -7 0
-12 -7 -3 -13 -12 -13 -21 0 -8 -13 -28 -30 -43 -16 -15 -30 -35 -30 -44 0 -9
-4 -16 -10 -16 -6 0 -10 -27 -10 -60 0 -33 4 -60 10 -60 6 0 10 -9 10 -20 0
-11 5 -20 10 -20 6 0 10 -7 10 -16 0 -19 24 -44 42 -44 8 0 20 -9 28 -20 12
-17 26 -20 98 -20 l84 0 38 40 c25 26 47 40 64 40 14 0 26 -4 26 -10 0 -5 14
-10 30 -10 17 0 30 -4 30 -10 0 -5 14 -10 30 -10 17 0 30 -4 30 -10 0 -5 14
-10 30 -10 17 0 30 -4 30 -10 0 -5 14 -10 30 -10 17 0 30 -4 30 -10 0 -5 18
-10 40 -10 22 0 40 -4 40 -10 0 -5 14 -10 30 -10 17 0 30 -4 30 -10 0 -5 14
-10 30 -10 17 0 30 -4 30 -10 0 -5 14 -10 30 -10 17 0 30 -4 30 -10 0 -5 14
-10 30 -10 17 0 30 -4 30 -10 0 -5 14 -10 30 -10 17 0 30 -4 30 -10 0 -5 14
-10 30 -10 17 0 30 -4 30 -10 0 -5 9 -10 20 -10 13 0 20 -7 20 -20 0 -11 5
-20 10 -20 6 0 10 -18 10 -40 l0 -40 40 0 c22 0 40 5 40 10 0 6 9 10 20 10 11
0 20 5 20 10 0 6 -4 10 -10 10 -5 0 -10 14 -10 30 0 17 -4 30 -10 30 -5 0 -10
11 -10 25 0 19 22 47 80 105 81 80 94 107 66 136 -23 22 -66 18 -66 -6 0 -12
-7 -20 -16 -20 -8 0 -33 -18 -54 -40 -21 -22 -43 -40 -50 -40 -16 0 -60 47
-60 65 0 8 -4 15 -10 15 -5 0 -10 9 -10 20 0 11 -4 20 -10 20 -5 0 -10 9 -10
20 0 11 -4 20 -10 20 -5 0 -10 9 -10 20 0 11 -4 20 -10 20 -5 0 -10 8 -10 18
0 10 -9 24 -20 32 -11 8 -20 22 -20 32 0 10 -4 18 -10 18 -5 0 -10 9 -10 20 0
11 -4 20 -10 20 -5 0 -10 9 -10 20 0 11 -4 20 -10 20 -5 0 -10 9 -10 20 0 11
-4 20 -10 20 -5 0 -10 8 -10 18 0 10 -9 24 -20 32 -11 8 -20 22 -20 32 0 10
-4 18 -10 18 -5 0 -10 9 -10 20 0 11 -4 20 -10 20 -5 0 -10 9 -10 20 0 11 -4
20 -10 20 -5 0 -10 18 -10 40 0 22 5 40 10 40 6 0 10 9 10 20 0 11 5 20 10 20
6 0 10 9 10 20 0 11 5 20 10 20 6 0 10 9 10 20 0 16 7 20 30 20 17 0 30 5 30
10 0 6 18 10 40 10 22 0 40 5 40 10 0 6 21 10 46 10 55 0 74 16 74 64 0 35 -1
36 -40 36 -22 0 -40 -4 -40 -10 0 -5 -22 -10 -50 -10 -27 0 -50 -4 -50 -10 0
-6 -30 -10 -70 -10 -57 0 -70 3 -70 16 0 9 -15 30 -32 47 -21 19 -28 32 -20
34 7 3 12 21 12 44 0 21 5 39 10 39 6 0 10 18 10 40 0 22 5 40 10 40 6 0 10
18 10 40 0 22 5 40 10 40 6 0 10 14 10 30 0 17 5 30 10 30 6 0 10 18 10 40 0
22 5 40 10 40 6 0 10 23 10 50 0 28 5 50 10 50 6 0 10 14 10 30 0 17 5 30 10
30 6 0 10 18 10 40 0 22 5 40 10 40 6 0 10 12 10 26 0 40 22 54 84 54 31 0 56
5 56 10 0 6 8 10 18 10 10 0 24 9 32 20 21 29 57 25 90 -10 33 -35 40 -37 40
-10 0 11 5 20 10 20 15 0 12 49 -4 66 -8 8 -22 14 -30 14 -14 0 -16 17 -16
118 0 106 -2 119 -20 132 -11 8 -20 22 -20 32 0 10 -4 18 -10 18 -18 0 -11 55
10 70 11 8 20 26 20 40 0 14 9 32 20 40 11 8 20 21 20 30 0 9 9 22 20 30 11 8
20 22 20 32 0 10 5 18 10 18 6 0 10 7 10 15 0 29 47 65 85 65 19 0 35 -4 35
-10 0 -5 23 -10 50 -10 28 0 50 -4 50 -10 0 -6 30 -10 69 -10 45 0 71 -4 73
-12 3 -7 19 2 41 25 43 42 44 47 17 47 -11 0 -20 5 -20 10 0 6 -27 10 -60 10
-33 0 -60 4 -60 10 0 6 -32 10 -76 10 -52 0 -80 4 -90 14 -16 17 -19 46 -4 46
6 0 10 9 10 20 0 11 5 20 10 20 6 0 10 8 10 18 0 10 9 24 20 32 11 8 20 21 20
30 0 9 9 22 20 30 11 8 20 22 20 32 0 10 5 18 10 18 6 0 10 8 10 18 0 10 9 24
20 32 11 8 20 22 20 32 0 10 5 18 10 18 6 0 10 9 10 20 0 11 5 20 10 20 6 0
10 9 10 20 0 11 5 20 10 20 6 0 10 8 10 18 0 10 9 24 20 32 11 8 20 22 20 32
0 10 5 18 10 18 6 0 10 7 10 15 0 22 52 73 58 57 5 -15 142 -17 142 -2 0 6 11
10 25 10 26 0 95 -59 95 -81 0 -6 14 -24 30 -39 17 -15 30 -33 30 -40 0 -6 18
-29 40 -50 22 -21 40 -43 40 -50 0 -17 73 -86 78 -72 2 7 12 12 23 12 34 0 24
47 -21 90 -22 21 -40 44 -40 50 0 6 -18 29 -40 50 -22 21 -40 44 -40 50 0 6
-18 29 -40 50 -22 21 -40 46 -40 54 0 9 -4 16 -10 16 -18 0 -11 35 10 50 12 8
20 26 20 42 0 15 5 28 10 28 6 0 10 18 10 40 l0 40 70 0 c40 0 70 4 70 10 0 6
23 10 50 10 28 0 50 5 50 10 0 6 27 10 60 10 33 0 60 4 60 10 0 6 33 10 80 10
47 0 80 4 80 10 0 6 13 10 29 10 16 0 32 6 34 13 4 9 8 8 17 -3 9 -11 13 -12
17 -2 3 8 28 12 74 12 39 0 69 4 69 10 0 6 30 10 70 10 40 0 70 4 70 10 0 6
33 10 80 10 l80 0 0 40 0 40 -60 0 c-33 0 -60 -4 -60 -10 0 -5 -22 -10 -50
-10 -27 0 -50 -4 -50 -10 0 -6 -37 -10 -90 -10 -53 0 -90 -4 -90 -10 0 -6 -33
-10 -80 -10 -47 0 -80 -4 -80 -10 0 -5 5 -10 10 -10 6 0 10 -4 10 -10 0 -15
-77 -12 -84 3 -5 10 -7 10 -12 0 -4 -9 -29 -13 -75 -13 -39 0 -69 -4 -69 -10
0 -6 -33 -10 -80 -10 -47 0 -80 -4 -80 -10 0 -6 -33 -10 -80 -10 -65 0 -80 3
-80 15 0 20 -85 105 -105 105 -8 0 -15 5 -15 10 0 6 -9 10 -20 10 -11 0 -20 5
-20 10 0 6 -27 10 -60 10 -33 0 -60 -4 -60 -10z m-120 -440 c0 -16 -4 -30 -10
-30 -5 0 -10 -9 -10 -20 0 -11 -4 -20 -10 -20 -5 0 -10 -9 -10 -20 0 -11 -4
-20 -10 -20 -5 0 -10 -8 -10 -18 0 -10 -9 -24 -20 -32 -11 -8 -20 -22 -20 -32
0 -10 -4 -18 -10 -18 -5 0 -10 -8 -10 -18 0 -10 -9 -24 -20 -32 -11 -8 -20
-22 -20 -32 0 -10 -4 -18 -10 -18 -5 0 -10 -8 -10 -18 0 -10 -9 -24 -20 -32
-11 -8 -20 -22 -20 -32 0 -10 -4 -18 -10 -18 -5 0 -10 -9 -10 -20 0 -11 -4
-20 -10 -20 -5 0 -10 -9 -10 -20 0 -11 -4 -20 -10 -20 -5 0 -10 -8 -10 -18 0
-10 -9 -24 -20 -32 -11 -8 -20 -20 -20 -28 0 -26 -28 -42 -74 -42 -25 0 -46 5
-46 10 0 6 -27 10 -60 10 -33 0 -60 4 -60 10 0 6 -27 10 -60 10 -33 0 -60 4
-60 10 0 6 -22 10 -50 10 -27 0 -50 5 -50 10 0 6 -32 10 -76 10 -74 0 -104 11
-104 40 0 17 26 40 44 40 9 0 16 5 16 10 0 6 9 10 20 10 11 0 20 5 20 10 0 6
8 10 18 10 10 0 24 9 32 20 8 11 22 20 32 20 10 0 18 5 18 10 0 6 9 10 20 10
11 0 20 5 20 10 0 6 8 10 18 10 10 0 24 9 32 20 8 11 22 20 32 20 10 0 18 5
18 10 0 6 9 10 20 10 11 0 20 5 20 10 0 6 9 10 20 10 11 0 20 5 20 10 0 6 9
10 20 10 11 0 20 5 20 10 0 6 9 10 20 10 11 0 20 5 20 10 0 6 9 10 20 10 11 0
20 5 20 10 0 6 8 10 18 10 10 0 24 9 32 20 8 11 22 20 32 20 10 0 18 5 18 10
0 6 9 10 20 10 11 0 20 5 20 10 0 6 9 10 20 10 11 0 20 5 20 10 0 6 9 10 20
10 11 0 20 5 20 10 0 6 8 10 18 10 10 0 24 9 32 20 8 11 22 20 32 20 10 0 18
5 18 10 0 6 9 10 20 10 11 0 20 5 20 10 0 6 14 10 30 10 27 0 30 -3 30 -30z
m-840 -620 c0 -6 27 -10 60 -10 33 0 60 -4 60 -10 0 -6 27 -10 60 -10 33 0 60
-4 60 -10 0 -6 27 -10 60 -10 33 0 60 -4 60 -10 0 -5 18 -10 40 -10 32 0 40
-4 40 -18 0 -10 -9 -24 -20 -32 -11 -8 -20 -22 -20 -32 0 -10 -4 -18 -10 -18
-5 0 -10 -8 -10 -18 0 -10 -9 -24 -20 -32 -11 -8 -20 -22 -20 -32 0 -10 -4
-18 -10 -18 -5 0 -10 -7 -10 -15 0 -9 -11 -27 -25 -40 -23 -24 -31 -25 -135
-25 -113 0 -140 8 -140 42 0 8 -9 20 -20 28 -11 8 -20 21 -20 30 0 9 -9 22
-20 30 -11 8 -20 21 -20 28 0 8 -13 27 -30 42 -16 15 -30 34 -30 42 0 7 -9 20
-20 28 -23 16 -26 54 -7 75 14 17 147 21 147 5z m-214 -124 c8 -8 14 -20 14
-26 0 -7 14 -25 30 -40 17 -15 30 -34 30 -42 0 -7 9 -20 20 -28 11 -8 20 -21
20 -28 0 -8 14 -27 30 -42 17 -15 30 -35 30 -44 0 -9 5 -16 10 -16 6 0 10 -13
10 -30 0 -16 -4 -30 -10 -30 -5 0 -10 -9 -10 -20 0 -11 -4 -20 -10 -20 -5 0
-10 -9 -10 -20 0 -11 -4 -20 -10 -20 -6 0 -10 -30 -10 -70 0 -63 -2 -70 -20
-70 -11 0 -20 -4 -20 -10 0 -5 -13 -10 -30 -10 -16 0 -30 -4 -30 -10 0 -5 -9
-10 -20 -10 -11 0 -20 -4 -20 -10 0 -5 -13 -10 -30 -10 -16 0 -30 -4 -30 -10
0 -5 -9 -10 -20 -10 -11 0 -20 -4 -20 -10 0 -5 -13 -10 -30 -10 -16 0 -30 -4
-30 -10 0 -5 -9 -10 -20 -10 -11 0 -20 -4 -20 -10 0 -5 -13 -10 -30 -10 -16 0
-30 -4 -30 -10 0 -5 -9 -10 -20 -10 -11 0 -20 -4 -20 -10 0 -5 -13 -10 -30
-10 -16 0 -30 -4 -30 -10 0 -5 -9 -10 -20 -10 -11 0 -20 -4 -20 -10 0 -5 -9
-10 -20 -10 -11 0 -20 -4 -20 -10 0 -5 -13 -10 -30 -10 -16 0 -30 -4 -30 -10
0 -5 -13 -10 -30 -10 -16 0 -30 -4 -30 -10 0 -5 -13 -10 -30 -10 -27 0 -30 3
-30 30 0 17 5 30 10 30 6 0 10 9 10 20 0 11 5 20 10 20 6 0 10 9 10 20 0 11 5
20 10 20 6 0 10 8 10 18 0 10 9 24 20 32 11 8 20 22 20 32 0 10 5 18 10 18 6
0 10 9 10 20 0 11 5 20 10 20 6 0 10 9 10 20 0 11 5 20 10 20 6 0 10 8 10 18
0 10 9 24 20 32 11 8 20 22 20 32 0 10 5 18 10 18 6 0 10 9 10 20 0 11 5 20
10 20 6 0 10 8 10 18 0 10 9 24 20 32 11 8 20 22 20 32 0 10 5 18 10 18 6 0
10 8 10 18 0 10 9 24 20 32 11 8 20 22 20 32 0 10 5 18 10 18 6 0 10 9 10 20
0 11 5 20 10 20 6 0 10 9 10 20 0 11 5 20 10 20 6 0 10 8 10 18 0 10 9 24 20
32 11 8 20 22 20 32 0 16 10 18 86 18 61 0 90 -4 100 -14z m194 -656 c15 -16
33 -30 40 -30 20 0 40 -27 40 -54 0 -14 -4 -26 -10 -26 -5 0 -10 -13 -10 -30
0 -16 -4 -30 -10 -30 -5 0 -10 -18 -10 -40 0 -22 -4 -40 -10 -40 -5 0 -10 -13
-10 -30 0 -16 -4 -30 -10 -30 -5 0 -10 -18 -10 -40 0 -22 -4 -40 -10 -40 -5 0
-10 -18 -10 -40 0 -22 -4 -40 -10 -40 -5 0 -10 -18 -10 -40 0 -22 -4 -40 -10
-40 -5 0 -10 -18 -10 -40 0 -22 -4 -40 -10 -40 -5 0 -10 -18 -10 -40 0 -22 -4
-40 -10 -40 -5 0 -10 -13 -10 -30 0 -28 -2 -30 -40 -30 -22 0 -40 -4 -40 -10
0 -5 -9 -10 -20 -10 -11 0 -20 -4 -20 -10 0 -5 -12 -10 -26 -10 -17 0 -41 16
-74 50 -27 28 -54 50 -60 50 -7 0 -25 14 -40 30 -15 17 -33 30 -40 30 -6 0
-29 18 -50 40 -21 22 -45 40 -52 40 -7 0 -20 9 -28 20 -8 11 -21 20 -28 20 -8
0 -27 14 -42 30 -15 17 -33 30 -39 30 -17 0 -81 67 -81 85 0 8 5 15 10 15 6 0
10 18 10 40 0 22 5 40 10 40 6 0 10 9 10 20 0 13 7 20 20 20 11 0 20 5 20 10
0 6 14 10 30 10 17 0 30 5 30 10 0 6 9 10 20 10 11 0 20 5 20 10 0 6 9 10 20
10 11 0 20 5 20 10 0 6 14 10 30 10 17 0 30 5 30 10 0 6 14 10 30 10 17 0 30
5 30 10 0 6 9 10 20 10 11 0 20 5 20 10 0 6 9 10 20 10 11 0 20 5 20 10 0 6
14 10 30 10 17 0 30 5 30 10 0 6 9 10 20 10 11 0 20 5 20 10 0 6 14 10 30 10
17 0 30 5 30 10 0 6 9 10 20 10 11 0 20 5 20 10 0 6 9 10 20 10 11 0 20 5 20
10 0 6 14 10 30 10 17 0 30 5 30 10 0 20 33 9 60 -20z m-770 -530 c21 -22 45
-40 52 -40 7 0 20 -9 28 -20 8 -11 21 -20 28 -20 7 0 31 -18 52 -40 21 -22 44
-40 50 -40 7 0 25 -13 40 -30 15 -16 33 -30 40 -30 7 0 25 -13 40 -30 15 -16
33 -30 39 -30 18 0 107 -93 93 -98 -15 -5 -17 -122 -2 -122 6 0 10 -9 10 -20
0 -11 5 -20 10 -20 20 0 9 -33 -20 -60 -16 -15 -30 -33 -30 -40 0 -6 -22 -33
-50 -60 -27 -27 -50 -54 -50 -60 0 -6 -16 -26 -35 -45 -42 -43 -84 -47 -120
-10 -14 13 -25 31 -25 40 0 8 -4 15 -10 15 -5 0 -10 14 -10 30 0 17 -4 30 -10
30 -5 0 -10 14 -10 30 0 17 -4 30 -10 30 -5 0 -10 14 -10 30 0 17 -4 30 -10
30 -5 0 -10 18 -10 40 0 22 -4 40 -10 40 -5 0 -10 14 -10 30 0 17 -4 30 -10
30 -5 0 -10 18 -10 40 0 22 -4 40 -10 40 -5 0 -10 9 -10 20 0 11 -4 20 -10 20
-5 0 -10 14 -10 30 0 17 -4 30 -10 30 -5 0 -10 14 -10 30 0 17 -4 30 -10 30
-5 0 -10 18 -10 40 0 22 -4 40 -10 40 -5 0 -10 14 -10 30 0 17 -4 30 -10 30
-5 0 -10 23 -10 50 0 47 2 50 26 50 17 0 39 -14 64 -40z m570 -630 c0 -6 33
-10 80 -10 73 0 80 -2 80 -20 0 -11 5 -20 10 -20 6 0 10 -9 10 -20 0 -11 5
-20 10 -20 6 0 10 -9 10 -20 0 -11 5 -20 10 -20 6 0 10 -9 10 -20 0 -11 5 -20
10 -20 6 0 10 -9 10 -20 0 -11 5 -20 10 -20 6 0 10 -9 10 -20 0 -11 5 -20 10
-20 6 0 10 -8 10 -18 0 -10 9 -24 20 -32 11 -8 20 -22 20 -32 0 -10 5 -18 10
-18 6 0 10 -9 10 -20 0 -11 5 -20 10 -20 6 0 10 -8 10 -18 0 -10 9 -24 20 -32
11 -8 20 -22 20 -32 0 -10 5 -18 10 -18 6 0 10 -9 10 -20 0 -11 5 -20 10 -20
6 0 10 -8 10 -18 0 -10 9 -24 20 -32 11 -8 20 -22 20 -32 0 -11 -7 -18 -20
-18 -11 0 -20 5 -20 10 0 6 -13 10 -30 10 -16 0 -30 5 -30 10 0 6 -18 10 -40
10 -22 0 -40 5 -40 10 0 6 -13 10 -30 10 -16 0 -30 5 -30 10 0 6 -13 10 -30
10 -16 0 -30 5 -30 10 0 6 -13 10 -30 10 -16 0 -30 5 -30 10 0 6 -13 10 -30
10 -16 0 -30 5 -30 10 0 6 -13 10 -30 10 -16 0 -30 5 -30 10 0 6 -13 10 -30
10 -16 0 -30 5 -30 10 0 6 -13 10 -30 10 -16 0 -30 5 -30 10 0 6 -13 10 -30
10 -27 0 -30 3 -30 30 0 17 -4 30 -10 30 -5 0 -10 18 -10 40 0 22 -4 40 -10
40 -5 0 -10 9 -10 20 0 11 5 20 10 20 6 0 10 7 10 16 0 8 18 33 40 54 22 21
40 44 40 50 0 6 18 29 40 50 22 21 40 43 40 50 0 13 21 39 33 40 4 0 7 -4 7
-10z"/>
<path d="M4740 6200 c0 -17 7 -20 40 -20 22 0 40 -4 40 -10 0 -5 14 -10 30
-10 17 0 30 -4 30 -10 0 -5 23 -10 50 -10 28 0 50 -4 50 -10 0 -5 14 -10 30
-10 17 0 30 5 30 10 0 6 -13 10 -30 10 -23 0 -30 4 -30 20 0 18 -7 20 -60 20
-33 0 -60 4 -60 10 0 6 -18 10 -40 10 -22 0 -40 5 -40 10 0 6 -9 10 -20 10
-13 0 -20 -7 -20 -20z"/>
<path d="M4420 6130 c0 -5 -12 -10 -26 -10 -26 0 -54 -20 -54 -40 0 -6 -28
-39 -62 -72 -36 -35 -57 -63 -50 -66 23 -7 12 -22 -18 -22 -20 0 -30 -5 -30
-15 0 -9 -49 -65 -110 -125 -60 -60 -110 -112 -110 -115 0 -3 23 -5 50 -5 28
0 50 5 50 10 0 6 7 10 15 10 18 0 85 64 85 80 0 7 18 29 40 50 22 21 40 43 40
49 0 17 208 221 225 221 21 0 19 7 -10 35 -26 27 -35 31 -35 15z"/>
<path d="M5080 6110 c0 -5 9 -10 20 -10 11 0 20 5 20 10 0 6 -9 10 -20 10 -11
0 -20 -4 -20 -10z"/>
<path d="M5140 6090 c0 -5 18 -10 40 -10 22 0 40 5 40 10 0 6 -18 10 -40 10
-22 0 -40 -4 -40 -10z"/>
<path d="M4500 6070 c0 -5 5 -10 10 -10 6 0 10 5 10 10 0 6 -4 10 -10 10 -5 0
-10 -4 -10 -10z"/>
<path d="M4560 6070 c0 -5 5 -10 10 -10 6 0 10 5 10 10 0 6 -4 10 -10 10 -5 0
-10 -4 -10 -10z"/>
<path d="M4600 6071 c0 -5 6 -12 13 -14 9 -4 8 -8 -3 -16 -8 -5 -11 -14 -6
-18 5 -4 11 -2 13 5 7 19 23 14 23 -8 0 -11 -4 -20 -10 -20 -5 0 -10 -4 -10
-10 0 -5 9 -10 20 -10 13 0 20 -7 20 -20 0 -11 5 -20 10 -20 6 0 10 -13 10
-30 0 -16 5 -30 10 -30 6 0 10 -13 10 -30 0 -16 5 -30 10 -30 6 0 10 -9 10
-20 0 -11 5 -20 10 -20 6 0 10 -9 10 -20 0 -11 -4 -20 -10 -20 -5 0 -10 -4
-10 -10 0 -5 9 -10 20 -10 16 0 20 -7 20 -30 0 -23 4 -30 20 -30 11 0 20 -4
20 -10 0 -5 9 -10 20 -10 13 0 20 7 20 20 0 13 -7 20 -20 20 -17 0 -20 7 -20
50 0 43 -3 50 -20 50 -11 0 -20 5 -20 10 0 6 5 10 10 10 6 0 10 9 10 20 0 12
-7 20 -16 20 -23 0 -44 25 -44 54 0 14 -4 26 -10 26 -5 0 -10 9 -10 20 0 11
-4 20 -10 20 -5 0 -10 14 -10 30 0 17 -4 30 -10 30 -5 0 -10 7 -10 16 0 8 -6
22 -14 30 -16 16 -46 19 -46 5z"/>
<path d="M5280 6050 c0 -5 23 -10 50 -10 28 0 50 -4 50 -10 0 -5 18 -10 40
-10 33 0 40 3 40 20 0 22 -15 27 -24 8 -5 -10 -7 -10 -12 0 -7 15 -144 17
-144 2z"/>
<path d="M5480 6014 c0 -3 8 -13 17 -22 12 -12 18 -13 21 -4 2 6 12 12 23 12
10 0 19 5 19 10 0 6 -18 10 -40 10 -22 0 -40 -3 -40 -6z"/>
<path d="M6000 5540 c0 -11 5 -20 10 -20 6 0 10 9 10 20 0 11 -4 20 -10 20 -5
0 -10 -9 -10 -20z"/>
<path d="M5512 5504 c-19 -20 -32 -38 -29 -41 6 -5 77 61 77 72 0 12 -17 1
-48 -31z"/>
<path d="M6020 5480 c0 -11 5 -20 10 -20 6 0 10 9 10 20 0 11 -4 20 -10 20 -5
0 -10 -9 -10 -20z"/>
<path d="M5440 5420 c0 -13 7 -20 20 -20 13 0 20 7 20 20 0 13 -7 20 -20 20
-13 0 -20 -7 -20 -20z"/>
<path d="M6040 5400 c0 -11 5 -20 10 -20 6 0 10 9 10 20 0 11 -4 20 -10 20 -5
0 -10 -9 -10 -20z"/>
<path d="M3680 5390 c0 -5 -9 -10 -20 -10 -11 0 -20 -4 -20 -10 0 -5 9 -10 20
-10 11 0 20 5 20 10 0 6 9 10 20 10 11 0 20 5 20 10 0 6 -9 10 -20 10 -11 0
-20 -4 -20 -10z"/>
<path d="M3566 5337 c-12 -15 -20 -18 -23 -9 -7 19 -23 14 -23 -8 0 -16 7 -20
36 -20 38 0 64 18 64 44 0 23 -32 19 -54 -7z m34 -7 c0 -5 -4 -10 -10 -10 -5
0 -10 5 -10 10 0 6 5 10 10 10 6 0 10 -4 10 -10z"/>
<path d="M6060 5330 c0 -5 5 -10 10 -10 6 0 10 5 10 10 0 6 -4 10 -10 10 -5 0
-10 -4 -10 -10z"/>
<path d="M6080 5270 c0 -5 5 -10 10 -10 6 0 10 5 10 10 0 6 -4 10 -10 10 -5 0
-10 -4 -10 -10z"/>
<path d="M6580 5274 c0 -3 6 -12 14 -20 20 -19 26 -18 26 6 0 13 -7 20 -20 20
-11 0 -20 -3 -20 -6z"/>
<path d="M3320 5210 c0 -5 5 -10 10 -10 6 0 10 5 10 10 0 6 -4 10 -10 10 -5 0
-10 -4 -10 -10z"/>
<path d="M6640 5210 c0 -5 7 -10 16 -10 9 0 29 -14 45 -31 16 -18 32 -29 35
-26 9 9 -63 77 -81 77 -8 0 -15 -4 -15 -10z"/>
<path d="M3280 5190 c0 -5 5 -10 10 -10 6 0 10 5 10 10 0 6 -4 10 -10 10 -5 0
-10 -4 -10 -10z"/>
<path d="M3240 5150 c0 -5 5 -10 10 -10 6 0 10 5 10 10 0 6 -4 10 -10 10 -5 0
-10 -4 -10 -10z"/>
<path d="M3200 5130 c0 -5 5 -10 10 -10 6 0 10 5 10 10 0 6 -4 10 -10 10 -5 0
-10 -4 -10 -10z"/>
<path d="M3053 5004 c-51 -51 -93 -99 -93 -105 0 -6 -18 -28 -40 -49 -46 -44
-48 -55 -18 -81 11 -11 18 -22 15 -26 -4 -3 -16 4 -26 16 l-20 23 -26 -26
c-14 -14 -25 -32 -25 -41 0 -8 -4 -15 -10 -15 -5 0 -10 -7 -10 -16 0 -9 -13
-29 -30 -44 -16 -15 -30 -35 -30 -44 0 -9 -4 -16 -10 -16 -5 0 -10 -9 -10 -20
0 -11 -4 -20 -10 -20 -5 0 -10 -13 -10 -28 0 -16 -8 -34 -20 -42 -12 -8 -20
-26 -20 -42 0 -15 -4 -28 -10 -28 -5 0 -10 -9 -10 -20 0 -11 -4 -20 -10 -20
-5 0 -10 -13 -10 -30 0 -16 -4 -30 -10 -30 -5 0 -10 -9 -10 -20 0 -11 -4 -20
-10 -20 -5 0 -10 -22 -10 -50 0 -27 -4 -50 -10 -50 -5 0 -10 -18 -10 -40 0
-22 -4 -40 -10 -40 -5 0 -10 -22 -10 -50 0 -27 -4 -50 -10 -50 -6 0 -10 -33
-10 -80 0 -47 -4 -80 -10 -80 -6 0 -10 -47 -10 -120 0 -73 4 -120 10 -120 6 0
10 -40 10 -100 0 -60 4 -100 10 -100 6 0 10 -22 10 -50 0 -27 5 -50 10 -50 6
0 10 -18 10 -40 0 -22 5 -40 10 -40 6 0 10 -18 10 -40 0 -22 5 -40 10 -40 6 0
10 -13 10 -30 0 -16 5 -30 10 -30 6 0 10 -9 10 -20 0 -11 5 -20 10 -20 6 0 10
-9 10 -20 0 -11 5 -20 10 -20 6 0 10 -9 10 -20 0 -11 5 -20 10 -20 6 0 10 -13
10 -30 0 -16 5 -30 10 -30 6 0 10 -8 10 -18 0 -10 9 -24 20 -32 11 -8 20 -22
20 -32 0 -10 5 -18 10 -18 6 0 10 -9 10 -20 0 -11 5 -20 10 -20 6 0 10 -7 10
-16 0 -9 13 -29 30 -44 16 -15 30 -35 30 -44 0 -9 5 -16 10 -16 6 0 10 -7 10
-16 0 -8 18 -33 40 -54 22 -21 40 -43 40 -49 0 -7 -63 -74 -140 -151 -127
-127 -140 -143 -140 -175 0 -19 -4 -35 -10 -35 -5 0 -10 5 -10 10 0 6 -9 10
-20 10 -11 0 -20 5 -20 10 0 6 -9 10 -20 10 -11 0 -20 5 -20 10 0 6 -13 10
-30 10 -16 0 -30 5 -30 10 0 6 -13 10 -30 10 -16 0 -30 -4 -30 -10 0 -5 -16
-10 -36 -10 -27 0 -43 -7 -64 -30 -15 -16 -35 -30 -44 -30 -9 0 -16 -7 -16
-15 0 -8 -225 -240 -500 -515 -275 -275 -500 -505 -500 -510 0 -6 -54 -64
-120 -130 -66 -66 -120 -126 -120 -135 0 -8 -4 -15 -10 -15 -5 0 -10 -9 -10
-20 0 -11 -4 -20 -10 -20 -6 0 -10 -50 -10 -130 0 -80 4 -130 10 -130 6 0 10
-13 10 -28 0 -16 8 -34 20 -42 11 -8 20 -20 20 -27 0 -19 86 -103 105 -103 8
0 15 -4 15 -10 0 -5 9 -10 20 -10 11 0 20 -4 20 -10 0 -5 9 -10 20 -10 11 0
20 -4 20 -10 0 -6 43 -10 110 -10 67 0 110 4 110 10 0 6 14 10 30 10 17 0 30
5 30 10 0 6 8 10 18 10 10 0 24 9 32 20 8 11 20 20 27 20 16 0 123 105 123
120 0 6 153 163 340 350 187 187 340 344 340 350 0 6 99 109 220 230 121 121
220 225 220 231 0 6 14 24 30 39 29 27 30 31 30 114 0 51 -4 86 -10 86 -5 0
-10 18 -10 39 0 22 -5 41 -12 44 -7 2 -9 8 -5 13 4 5 12 2 16 -5 7 -10 46 24
150 128 124 125 144 141 174 141 21 0 38 -7 47 -20 8 -11 22 -20 32 -20 11 0
18 -7 18 -20 0 -15 7 -20 28 -20 16 0 34 -8 42 -20 8 -11 21 -20 30 -20 9 0
22 -9 30 -20 8 -11 22 -20 32 -20 10 0 18 -4 18 -10 0 -5 9 -10 20 -10 11 0
20 -4 20 -10 0 -5 13 -10 28 -10 16 0 34 -8 42 -20 8 -11 22 -20 32 -20 10 0
18 -4 18 -10 0 -5 14 -10 30 -10 17 0 30 -4 30 -10 0 -5 9 -10 20 -10 11 0 20
-4 20 -10 0 -5 18 -10 40 -10 22 0 40 -4 40 -10 0 -5 18 -10 40 -10 22 0 40
-4 40 -10 0 -5 14 -10 30 -10 17 0 30 -4 30 -10 0 -6 27 -10 60 -10 33 0 60
-4 60 -10 0 -6 90 -10 250 -10 160 0 250 4 250 10 0 6 23 10 50 10 28 0 50 5
50 10 0 6 23 10 50 10 28 0 50 5 50 10 0 6 14 10 30 10 17 0 30 5 30 10 0 6
18 10 40 10 22 0 40 5 40 10 0 6 13 10 28 10 16 0 34 8 42 20 8 12 26 20 42
20 15 0 28 5 28 10 0 6 9 10 20 10 11 0 20 5 20 10 0 6 13 10 28 10 16 0 34 8
42 20 8 11 21 20 30 20 9 0 22 9 30 20 8 11 22 20 32 20 10 0 18 5 18 10 0 6
8 10 18 10 10 0 24 9 32 20 8 11 21 20 28 20 8 0 27 14 42 30 15 17 33 30 40
30 6 0 29 18 50 40 21 22 46 40 54 40 9 0 16 8 16 19 0 11 6 22 13 25 10 5 10
7 0 12 -26 12 -12 24 27 24 30 0 40 4 40 16 0 18 23 44 40 44 15 0 40 25 40
40 0 7 14 25 30 40 22 21 30 37 30 63 0 20 -6 37 -12 40 -8 2 -9 8 -4 13 5 5
11 4 13 -3 5 -14 63 -18 63 -5 0 4 -9 14 -20 22 -21 15 -28 50 -10 50 6 0 10
9 10 20 0 11 5 20 10 20 6 0 10 30 10 70 l0 70 -30 0 c-16 0 -30 5 -30 10 0 6
23 10 50 10 28 0 50 5 50 10 0 6 -22 10 -50 10 -27 0 -50 5 -50 10 0 6 -9 10
-20 10 -16 0 -20 7 -20 30 0 17 5 30 10 30 6 0 10 9 10 20 0 11 -4 20 -10 20
-5 0 -10 -9 -10 -20 0 -17 -7 -20 -40 -20 -38 0 -40 2 -40 30 0 23 -4 30 -20
30 -11 0 -20 -4 -20 -10 0 -5 -4 -10 -10 -10 -5 0 -10 9 -10 20 0 13 -7 20
-20 20 -13 0 -20 -7 -20 -20 0 -11 -4 -20 -10 -20 -5 0 -10 -13 -10 -30 0 -23
5 -30 19 -30 11 0 21 6 24 13 2 6 8 9 12 5 10 -9 -19 -38 -38 -38 -9 0 -17 5
-19 12 -5 15 -58 -35 -58 -54 0 -8 -9 -20 -20 -28 -11 -8 -20 -21 -20 -28 0
-8 -13 -27 -30 -42 -16 -15 -30 -33 -30 -39 0 -15 -146 -161 -161 -161 -6 0
-24 -13 -39 -30 -15 -16 -34 -30 -42 -30 -7 0 -20 -9 -28 -20 -8 -11 -22 -20
-32 -20 -10 0 -18 -4 -18 -10 0 -5 -8 -10 -18 -10 -10 0 -24 -9 -32 -20 -8
-11 -22 -20 -32 -20 -10 0 -18 -4 -18 -10 0 -5 -9 -10 -20 -10 -11 0 -20 -4
-20 -10 0 -5 -9 -10 -20 -10 -11 0 -20 -4 -20 -10 0 -5 -9 -10 -20 -10 -11 0
-20 -4 -20 -10 0 -5 -13 -10 -30 -10 -16 0 -30 -4 -30 -10 0 -5 -13 -10 -30
-10 -16 0 -30 -4 -30 -10 0 -5 -22 -10 -50 -10 -27 0 -50 -4 -50 -10 0 -5 -22
-10 -50 -10 -27 0 -50 -4 -50 -10 0 -6 -73 -10 -200 -10 -127 0 -200 4 -200
10 0 6 -22 10 -50 10 -27 0 -50 5 -50 10 0 6 -13 10 -30 10 -16 0 -30 5 -30
10 0 6 -18 10 -40 10 -22 0 -40 5 -40 10 0 6 -9 10 -20 10 -11 0 -20 5 -20 10
0 6 -13 10 -30 10 -16 0 -30 5 -30 10 0 6 -9 10 -20 10 -11 0 -20 5 -20 10 0
6 -13 10 -28 10 -16 0 -34 8 -42 20 -8 11 -22 20 -32 20 -10 0 -18 5 -18 10 0
6 -7 10 -16 10 -9 0 -29 14 -44 30 -15 17 -33 30 -40 30 -7 0 -25 14 -40 30
-15 17 -33 30 -39 30 -16 0 -181 167 -181 183 0 7 -9 19 -20 27 -11 8 -20 21
-20 28 0 8 -13 27 -30 42 -16 15 -30 34 -30 42 0 7 -9 20 -20 28 -11 8 -20 22
-20 32 0 10 -4 18 -10 18 -5 0 -10 9 -10 20 0 11 -4 20 -10 20 -5 0 -10 9 -10
20 0 11 -4 20 -10 20 -5 0 -10 9 -10 20 0 11 -4 20 -10 20 -5 0 -10 14 -10 30
0 17 -4 30 -10 30 -5 0 -10 14 -10 30 0 17 -4 30 -10 30 -5 0 -10 14 -10 30 0
17 -4 30 -10 30 -6 0 -10 27 -10 60 0 33 -4 60 -10 60 -6 0 -10 27 -10 60 0
33 -4 60 -10 60 -6 0 -10 50 -10 130 0 80 4 130 10 130 6 0 10 27 10 60 0 33
4 60 10 60 6 0 10 23 10 50 0 28 5 50 10 50 6 0 10 14 10 30 0 17 5 30 10 30
6 0 10 14 10 30 0 17 5 30 10 30 6 0 10 14 10 30 0 17 5 30 10 30 6 0 10 9 10
20 0 11 5 20 10 20 6 0 10 13 10 28 0 16 8 34 20 42 11 8 20 26 20 40 0 14 9
32 20 40 11 8 20 22 20 32 0 10 5 18 10 18 6 0 10 9 10 20 0 13 7 20 20 20 13
0 20 7 20 18 0 10 9 24 20 32 11 8 20 22 20 32 0 10 7 18 15 18 20 0 65 45 65
65 0 8 7 15 16 15 8 0 37 23 64 50 27 28 56 50 64 50 9 0 16 9 16 20 0 13 7
20 20 20 13 0 20 7 20 20 0 13 7 20 20 20 11 0 20 5 20 10 0 6 14 10 30 10 23
0 30 4 30 20 0 16 7 20 30 20 34 0 37 5 15 27 -14 14 -18 13 -34 -6 -10 -12
-29 -21 -42 -21 -14 0 -31 -9 -39 -20 -8 -11 -21 -20 -30 -20 -9 0 -22 -9 -30
-20 -8 -11 -22 -20 -32 -20 -20 0 -24 16 -6 22 15 5 -13 38 -32 38 -22 0 -100
89 -100 115 0 23 -4 25 -40 25 -22 0 -40 5 -40 10 0 6 -9 10 -20 10 -11 0 -20
5 -20 10 0 6 -13 10 -30 10 -16 0 -30 5 -30 10 0 29 -45 -1 -127 -86z m287
-44 c0 -11 -4 -20 -10 -20 -5 0 -10 9 -10 20 0 11 5 20 10 20 6 0 10 -9 10
-20z m80 -70 c0 -5 -4 -10 -10 -10 -5 0 -10 5 -10 10 0 6 5 10 10 10 6 0 10
-4 10 -10z m0 -40 c0 -5 -4 -10 -10 -10 -5 0 -10 5 -10 10 0 6 5 10 10 10 6 0
10 -4 10 -10z m-540 -140 c0 -5 -4 -10 -10 -10 -5 0 -10 5 -10 10 0 6 5 10 10
10 6 0 10 -4 10 -10z m-20 -40 c0 -5 -9 -10 -20 -10 -11 0 -20 5 -20 10 0 6 9
10 20 10 11 0 20 -4 20 -10z m2880 -1810 c0 -24 -6 -25 -26 -6 -19 20 -18 26
6 26 13 0 20 -7 20 -20z m100 -10 c0 -5 -4 -10 -10 -10 -5 0 -10 5 -10 10 0 6
5 10 10 10 6 0 10 -4 10 -10z m-360 -40 c0 -5 -4 -10 -10 -10 -5 0 -10 5 -10
10 0 6 5 10 10 10 6 0 10 -4 10 -10z m300 -220 c0 -5 -4 -10 -10 -10 -5 0 -10
5 -10 10 0 6 5 10 10 10 6 0 10 -4 10 -10z m-3320 -590 c0 -11 5 -20 10 -20 6
0 10 -11 10 -25 0 -20 -117 -142 -555 -580 -522 -522 -557 -555 -590 -555 -34
0 -48 -14 -22 -23 6 -2 9 -8 5 -12 -4 -4 -15 1 -25 11 -13 12 -14 19 -5 22 6
2 12 16 12 31 0 15 9 33 20 41 11 8 20 20 20 28 0 7 50 62 110 122 61 60 110
114 110 120 0 6 135 145 300 310 165 165 300 304 300 310 0 6 51 62 113 124
102 104 115 114 150 115 31 1 37 -2 37 -19z"/>
<path d="M3880 5010 c0 -5 5 -10 10 -10 6 0 10 5 10 10 0 6 -4 10 -10 10 -5 0
-10 -4 -10 -10z"/>
<path d="M3500 4930 c0 -5 5 -10 10 -10 6 0 10 5 10 10 0 6 -4 10 -10 10 -5 0
-10 -4 -10 -10z"/>
<path d="M6800 4830 c0 -5 5 -10 10 -10 6 0 10 5 10 10 0 6 -4 10 -10 10 -5 0
-10 -4 -10 -10z"/>
<path d="M4020 4815 c0 -11 51 -57 57 -52 3 3 -6 17 -20 31 -25 25 -37 32 -37
21z"/>
<path d="M6840 4810 c0 -5 5 -10 10 -10 6 0 10 5 10 10 0 6 -4 10 -10 10 -5 0
-10 -4 -10 -10z"/>
<path d="M4811 4724 c-18 -21 -6 -30 14 -11 8 9 15 18 15 21 0 11 -15 5 -29
-10z"/>
<path d="M6340 4730 c0 -5 5 -10 10 -10 6 0 10 -9 10 -20 0 -13 7 -20 20 -20
26 0 25 6 -5 35 -26 27 -35 31 -35 15z"/>
<path d="M4100 4714 c0 -10 31 -36 37 -31 3 3 -2 13 -10 22 -16 15 -27 19 -27
9z"/>
<path d="M4693 4604 c-29 -29 -53 -59 -53 -65 0 -6 -10 -20 -22 -30 -11 -11
-19 -22 -15 -25 7 -7 97 82 97 96 0 17 26 40 44 40 9 0 16 8 16 20 0 29 -9 24
-67 -36z"/>
<path d="M6400 4650 c0 -5 5 -10 10 -10 6 0 10 -9 10 -20 0 -11 5 -20 10 -20
6 0 10 -7 10 -16 0 -9 14 -29 30 -44 17 -15 30 -35 30 -44 0 -9 5 -16 10 -16
6 0 10 -7 10 -16 0 -9 14 -29 30 -44 17 -15 30 -33 30 -40 0 -16 30 -44 38
-35 4 4 1 10 -5 12 -7 3 -13 13 -13 24 0 10 -4 19 -10 19 -5 0 -10 9 -10 20 0
11 -4 20 -10 20 -5 0 -10 8 -10 18 0 10 -9 24 -20 32 -11 8 -20 21 -20 30 0 9
-9 22 -20 30 -11 8 -20 21 -20 30 0 9 -9 22 -20 30 -11 8 -20 22 -20 32 0 11
-7 18 -20 18 -11 0 -20 -4 -20 -10z"/>
<path d="M4160 4632 c0 -4 9 -14 20 -22 12 -8 20 -26 20 -42 0 -21 5 -28 20
-28 13 0 20 -7 20 -19 0 -11 6 -22 13 -25 10 -5 10 -7 0 -12 -7 -3 -13 -13
-13 -23 0 -9 -9 -23 -20 -31 -11 -8 -20 -22 -20 -32 0 -10 -4 -18 -10 -18 -6
0 -10 -30 -10 -70 0 -40 4 -70 10 -70 6 0 10 -16 10 -35 0 -29 -9 -44 -45 -80
-24 -25 -49 -45 -55 -45 -6 0 -38 -27 -70 -60 -32 -33 -64 -60 -70 -60 -6 0
-29 -18 -50 -40 -21 -22 -46 -40 -54 -40 -9 0 -16 -4 -16 -10 0 -5 -13 -10
-30 -10 -16 0 -30 5 -30 10 0 6 -9 10 -20 10 -11 0 -20 5 -20 10 0 6 -18 10
-39 10 -22 0 -42 6 -45 13 -5 10 -7 10 -12 0 -3 -8 -25 -13 -55 -13 -27 0 -49
-4 -49 -10 0 -5 -8 -10 -18 -10 -10 0 -24 -9 -32 -20 -23 -31 -76 -27 -110 10
-15 17 -34 30 -42 30 -7 0 -20 9 -28 20 -8 11 -21 20 -30 20 -9 0 -22 9 -30
20 -8 11 -22 20 -32 20 -10 0 -18 5 -18 10 0 6 -9 10 -20 10 -13 0 -20 -7 -20
-20 0 -11 -4 -20 -10 -20 -15 0 -12 -29 4 -46 8 -8 21 -14 28 -14 8 0 20 -9
28 -20 8 -11 21 -20 30 -20 9 0 22 -9 30 -20 8 -11 21 -20 30 -20 9 0 22 -9
30 -20 8 -11 20 -20 28 -20 7 0 20 -6 28 -14 16 -17 19 -66 4 -66 -6 0 -10
-27 -10 -60 0 -33 4 -60 10 -60 6 0 10 -20 10 -45 0 -39 -5 -51 -35 -80 -19
-19 -39 -35 -45 -35 -6 0 -35 -25 -65 -55 -43 -43 -55 -61 -55 -85 0 -32 19
-60 40 -60 16 0 80 67 80 85 0 8 7 15 16 15 20 0 44 24 44 44 0 9 7 16 16 16
9 0 29 14 44 30 27 29 60 40 60 20 0 -5 9 -10 20 -10 11 0 20 -4 20 -10 0 -5
22 -10 49 -10 30 0 52 -5 55 -12 5 -10 7 -10 12 0 16 33 104 -11 104 -53 0 -8
5 -15 10 -15 6 0 10 -9 10 -20 0 -11 5 -20 10 -20 6 0 10 -13 10 -30 0 -16 5
-30 10 -30 6 0 10 -8 10 -18 0 -10 9 -24 20 -32 11 -8 20 -22 20 -32 0 -10 5
-18 10 -18 6 0 10 -9 10 -20 0 -11 5 -20 10 -20 6 0 10 -9 10 -20 0 -11 5 -20
10 -20 6 0 10 -18 10 -40 0 -22 -4 -40 -10 -40 -5 0 -10 -9 -10 -20 0 -11 -4
-20 -10 -20 -5 0 -10 -18 -10 -40 0 -33 -3 -40 -20 -40 -11 0 -20 -4 -20 -10
0 -5 -22 -10 -50 -10 -27 0 -50 -4 -50 -10 0 -5 -22 -10 -50 -10 -27 0 -50 -4
-50 -10 0 -5 -16 -10 -36 -10 -19 0 -42 -7 -50 -15 -14 -13 -14 -17 0 -30 8
-8 22 -15 30 -15 9 0 16 -4 16 -10 0 -5 23 -10 50 -10 28 0 50 5 50 10 0 6 14
10 30 10 17 0 30 5 30 10 0 6 29 10 66 10 60 0 68 -3 94 -30 15 -16 34 -30 42
-30 7 0 20 -9 28 -20 12 -17 26 -20 82 -20 59 0 68 -2 68 -18 0 -10 9 -24 20
-32 11 -8 20 -22 20 -32 0 -10 5 -18 10 -18 6 0 10 -8 10 -18 0 -10 9 -24 20
-32 11 -8 20 -22 20 -32 0 -14 8 -18 40 -18 38 0 40 2 40 30 0 17 -4 30 -10
30 -5 0 -10 9 -10 20 0 11 -4 20 -10 20 -5 0 -10 8 -10 18 0 10 -9 24 -20 32
-11 8 -20 22 -20 32 0 10 -4 18 -10 18 -5 0 -10 22 -10 48 0 36 5 51 20 62 16
12 20 26 20 72 0 51 2 58 20 58 11 0 20 5 20 10 0 6 9 10 20 10 11 0 20 5 20
10 0 6 9 10 20 10 11 0 20 5 20 10 0 6 14 10 30 10 17 0 30 5 30 10 0 6 9 10
20 10 11 0 20 5 20 10 0 6 9 10 20 10 11 0 20 5 20 10 0 6 14 10 30 10 17 0
30 5 30 10 0 6 9 10 20 10 11 0 20 5 20 10 0 6 9 10 20 10 11 0 20 5 20 10 0
6 9 10 20 10 11 0 20 5 20 10 0 6 14 10 30 10 17 0 30 5 30 10 0 6 12 10 26
10 17 0 39 -14 64 -40 25 -26 47 -40 64 -40 14 0 26 -4 26 -10 0 -5 14 -10 30
-10 17 0 30 -4 30 -10 0 -5 9 -10 20 -10 18 0 20 -7 20 -70 0 -40 4 -70 10
-70 6 0 10 -30 10 -70 0 -69 1 -70 26 -70 40 0 54 22 54 84 0 31 -4 56 -10 56
-6 0 -10 37 -10 90 0 90 0 90 25 90 29 0 115 79 115 105 0 8 5 15 10 15 6 0
10 35 10 86 0 88 10 114 44 114 9 0 16 5 16 10 0 6 14 10 30 10 17 0 30 5 30
10 0 6 14 10 30 10 17 0 30 5 30 10 0 6 14 10 30 10 29 0 30 1 30 50 0 28 -4
50 -10 50 -5 0 -10 -4 -10 -10 0 -5 -9 -10 -20 -10 -11 0 -20 -4 -20 -10 0 -5
-13 -10 -30 -10 -16 0 -30 -4 -30 -10 0 -5 -9 -10 -20 -10 -13 0 -20 -7 -20
-20 0 -15 -7 -20 -29 -20 -16 0 -32 -6 -35 -12 -5 -10 -7 -10 -12 0 -3 6 -12
12 -21 12 -8 0 -28 14 -43 30 -15 17 -33 30 -40 30 -26 0 -40 30 -40 84 0 31
5 56 10 56 6 0 10 14 10 30 0 17 5 30 10 30 6 0 10 14 10 30 0 17 5 30 10 30
6 0 10 23 10 50 0 28 5 50 10 50 6 0 10 14 10 30 0 17 5 30 10 30 6 0 10 18
10 40 0 22 5 40 10 40 6 0 10 18 10 40 l0 40 40 0 c44 0 48 4 23 28 -12 12
-18 13 -21 4 -2 -6 -17 -12 -33 -12 -16 0 -29 -4 -29 -10 0 -5 -7 -10 -16 -10
-30 0 -44 -27 -44 -84 0 -31 -4 -56 -10 -56 -5 0 -10 -13 -10 -30 0 -16 -4
-30 -10 -30 -6 0 -10 -30 -10 -70 0 -63 -2 -70 -20 -70 -22 0 -27 -15 -7 -24
10 -5 10 -7 0 -12 -7 -3 -13 -14 -13 -24 0 -10 6 -20 13 -23 7 -2 8 -8 3 -13
-5 -5 -11 -4 -13 4 -9 23 -23 12 -23 -18 0 -16 -4 -30 -10 -30 -5 0 -10 -13
-10 -30 l0 -30 -70 0 c-60 0 -70 2 -70 18 0 10 -9 24 -20 32 -11 8 -20 22 -20
32 0 10 -4 18 -10 18 -5 0 -10 9 -10 20 0 11 -4 20 -10 20 -5 0 -10 8 -10 18
0 10 -9 24 -20 32 -11 8 -20 22 -20 32 0 10 -4 18 -10 18 -5 0 -10 8 -10 18 0
10 -9 24 -20 32 -11 8 -20 22 -20 32 0 10 -4 18 -10 18 -5 0 -10 9 -10 20 0
13 -7 20 -20 20 -22 0 -27 16 -8 22 17 6 -14 38 -36 38 -12 0 -16 10 -16 40 0
33 -3 40 -20 40 -17 0 -20 7 -20 48 0 36 5 51 20 62 11 8 20 22 20 32 0 10 5
18 10 18 6 0 10 14 10 30 l0 30 120 0 c73 0 120 -4 120 -10 0 -15 77 -12 84 3
5 10 7 10 12 0 5 -13 64 -19 64 -7 0 14 -31 34 -54 34 -14 0 -26 5 -26 10 0
14 -37 12 -44 -2 -5 -10 -7 -10 -12 0 -3 6 -18 12 -34 12 -16 0 -31 -6 -33
-12 -4 -10 -8 -9 -17 2 -9 11 -13 12 -17 3 -6 -15 -43 -17 -43 -3 0 6 -16 10
-36 10 -38 0 -64 18 -64 44 0 9 -8 16 -20 16 -13 0 -20 -7 -20 -20 0 -11 5
-20 10 -20 6 0 10 -9 10 -20 0 -11 -3 -20 -6 -20 -3 0 -27 23 -54 50 -27 28
-54 50 -60 50 -7 0 -25 14 -40 30 -27 29 -60 40 -60 20 0 -5 -9 -10 -20 -10
-11 0 -20 5 -20 10 0 6 -18 10 -40 10 -33 0 -40 3 -40 20 0 11 -4 20 -10 20
-5 0 -10 8 -10 18 0 10 -9 24 -20 32 -11 8 -20 21 -20 28 0 8 -13 27 -30 42
-16 15 -30 35 -30 44 0 9 -8 16 -20 16 -11 0 -20 -4 -20 -8z m120 -542 c0 -5
7 -10 16 -10 22 0 53 -32 36 -38 -7 -2 -12 -21 -12 -43 0 -21 -4 -39 -10 -39
-5 0 -10 -13 -10 -30 0 -16 -4 -30 -10 -30 -5 0 -10 -18 -10 -40 0 -22 -4 -40
-10 -40 -5 0 -10 -18 -10 -40 0 -22 -4 -40 -10 -40 -6 0 -10 -26 -10 -59 0
-38 -4 -61 -12 -63 -9 -3 -8 -9 4 -21 23 -23 48 -21 48 3 0 11 5 20 10 20 6 0
10 14 10 30 0 17 5 30 10 30 6 0 10 18 10 40 0 22 5 40 10 40 6 0 10 14 10 30
0 17 5 30 10 30 6 0 10 18 10 40 0 22 5 40 10 40 6 0 10 18 10 40 0 22 5 40
10 40 6 0 10 14 10 30 0 23 4 30 20 30 11 0 20 5 20 10 0 6 23 10 50 10 43 0
50 -3 50 -20 0 -11 5 -20 10 -20 6 0 10 -9 10 -20 0 -13 7 -20 20 -20 11 0 20
-4 20 -10 0 -5 -4 -10 -10 -10 -5 0 -10 -4 -10 -10 0 -5 9 -10 20 -10 13 0 20
-7 20 -20 0 -11 5 -20 10 -20 6 0 10 -9 10 -20 0 -11 5 -20 10 -20 6 0 10 -13
10 -30 0 -16 5 -30 10 -30 6 0 10 -9 10 -20 0 -11 5 -20 10 -20 6 0 10 -8 10
-18 0 -10 9 -24 20 -32 11 -8 20 -26 20 -40 0 -14 9 -32 20 -40 11 -8 20 -22
20 -32 0 -10 5 -18 10 -18 6 0 10 -8 10 -18 0 -10 9 -24 20 -32 11 -8 20 -22
20 -32 0 -10 5 -18 10 -18 18 0 11 -35 -10 -50 -11 -8 -20 -20 -20 -28 0 -7
-6 -20 -14 -28 -17 -16 -66 -19 -66 -4 0 14 -38 12 -43 -2 -3 -9 -11 -6 -24
10 -12 12 -32 22 -47 22 -14 0 -26 5 -26 10 0 6 -13 10 -30 10 -16 0 -30 5
-30 10 0 6 -13 10 -30 10 -16 0 -30 5 -30 10 0 6 -13 10 -30 10 -16 0 -30 5
-30 10 0 6 -13 10 -30 10 -16 0 -30 5 -30 10 0 6 -18 10 -40 10 -22 0 -40 5
-40 10 0 6 -9 10 -20 10 -11 0 -20 5 -20 10 0 6 -18 10 -40 10 -22 0 -40 5
-40 10 0 6 -18 10 -40 10 -22 0 -40 5 -40 10 0 6 -18 10 -40 10 -22 0 -40 5
-40 10 0 6 -16 10 -36 10 -48 0 -64 19 -64 74 0 25 -4 46 -10 46 -5 0 -10 16
-10 35 0 30 9 45 55 90 30 30 59 55 65 55 6 0 38 27 70 60 32 33 65 60 72 60
7 1 29 19 48 40 24 27 44 39 63 40 15 0 27 -4 27 -10z m-360 -560 c0 -5 18
-10 40 -10 22 0 40 -4 40 -10 0 -5 14 -10 30 -10 17 0 30 -4 30 -10 0 -5 14
-10 30 -10 17 0 30 -4 30 -10 0 -5 9 -10 20 -10 17 0 20 -7 20 -50 0 -27 -4
-50 -10 -50 -5 0 -10 -22 -10 -50 0 -27 -4 -50 -10 -50 -5 0 -10 -18 -10 -40
0 -22 -4 -40 -10 -40 -5 0 -10 -18 -10 -40 0 -22 -4 -40 -10 -40 -5 0 -10 -13
-10 -30 0 -28 -3 -30 -36 -30 -38 0 -64 18 -64 44 0 9 -4 16 -10 16 -5 0 -10
9 -10 20 0 11 -4 20 -10 20 -5 0 -10 9 -10 20 0 11 -4 20 -10 20 -5 0 -10 9
-10 20 0 11 -4 20 -10 20 -5 0 -10 9 -10 20 0 11 -4 20 -10 20 -5 0 -10 8 -10
18 0 10 -9 24 -20 32 -12 8 -20 26 -20 42 0 15 -4 28 -10 28 -5 0 -10 9 -10
19 0 11 -6 21 -12 24 -8 2 -1 15 20 34 17 17 32 36 32 42 0 18 23 40 43 41 9
0 17 -4 17 -10z m400 -120 c0 -5 18 -10 40 -10 22 0 40 -4 40 -10 0 -5 18 -10
40 -10 22 0 40 -4 40 -10 0 -5 14 -10 30 -10 17 0 30 -4 30 -10 0 -5 14 -10
30 -10 17 0 30 -4 30 -10 0 -5 14 -10 30 -10 17 0 30 -4 30 -10 0 -5 16 -10
36 -10 46 0 64 -19 64 -70 0 -43 -17 -70 -44 -70 -9 0 -16 -4 -16 -10 0 -5 -9
-10 -20 -10 -11 0 -20 -4 -20 -10 0 -5 -13 -10 -30 -10 -16 0 -30 -4 -30 -10
0 -5 -9 -10 -20 -10 -11 0 -20 -4 -20 -10 0 -5 -9 -10 -20 -10 -11 0 -20 -4
-20 -10 0 -5 -13 -10 -30 -10 -16 0 -30 -4 -30 -10 0 -5 -9 -10 -20 -10 -11 0
-20 -4 -20 -10 0 -5 -9 -10 -20 -10 -11 0 -20 -4 -20 -10 0 -5 -13 -10 -30
-10 -16 0 -30 -4 -30 -10 0 -5 -9 -10 -20 -10 -11 0 -20 -4 -20 -10 0 -5 -18
-10 -40 -10 -33 0 -40 3 -40 20 0 13 -7 20 -20 20 -17 0 -20 7 -20 50 0 28 5
50 10 50 6 0 10 18 10 40 0 22 5 40 10 40 6 0 10 18 10 40 0 22 5 40 10 40 6
0 10 23 10 50 0 28 5 50 10 50 6 0 10 14 10 30 0 28 2 30 40 30 22 0 40 -4 40
-10z"/>
<path d="M4300 4530 c0 -5 5 -10 10 -10 6 0 10 5 10 10 0 6 -4 10 -10 10 -5 0
-10 -4 -10 -10z"/>
<path d="M4340 4450 c0 -5 5 -10 10 -10 6 0 10 5 10 10 0 6 -4 10 -10 10 -5 0
-10 -4 -10 -10z"/>
<path d="M4500 4430 c0 -5 5 -10 10 -10 6 0 10 5 10 10 0 6 -4 10 -10 10 -5 0
-10 -4 -10 -10z"/>
<path d="M7220 4400 c0 -11 5 -20 10 -20 6 0 10 9 10 20 0 11 -4 20 -10 20 -5
0 -10 -9 -10 -20z"/>
<path d="M7240 4320 c0 -22 5 -40 10 -40 6 0 10 -18 10 -40 0 -22 5 -40 10
-40 6 0 10 -22 10 -50 0 -27 5 -50 10 -50 6 0 10 9 10 20 0 11 5 20 10 20 6 0
10 9 10 20 0 11 -4 20 -10 20 -5 0 -10 18 -10 40 0 22 -4 40 -10 40 -5 0 -10
9 -10 20 0 11 -4 20 -10 20 -5 0 -10 14 -10 30 0 17 -4 30 -10 30 -5 0 -10
-18 -10 -40z"/>
<path d="M6620 4310 c0 -5 5 -10 10 -10 6 0 10 5 10 10 0 6 -4 10 -10 10 -5 0
-10 -4 -10 -10z"/>
<path d="M5420 4150 c0 -5 5 -10 10 -10 6 0 10 5 10 10 0 6 -4 10 -10 10 -5 0
-10 -4 -10 -10z"/>
<path d="M5360 4070 c0 -5 9 -10 20 -10 11 0 20 5 20 10 0 6 -9 10 -20 10 -11
0 -20 -4 -20 -10z"/>
<path d="M7300 4030 c0 -27 5 -50 10 -50 6 0 10 -18 10 -40 0 -22 5 -40 10
-40 6 0 10 -22 10 -50 0 -27 5 -50 10 -50 6 0 10 -18 10 -40 0 -22 5 -40 10
-40 6 0 10 -22 10 -49 0 -30 5 -52 13 -55 10 -5 10 -7 0 -12 -21 -10 -16 -44
7 -44 18 0 20 7 20 60 0 33 -4 60 -10 60 -5 0 -10 18 -10 40 0 22 -4 40 -10
40 -5 0 -10 23 -10 50 0 28 -4 50 -10 50 -5 0 -10 18 -10 40 0 22 -4 40 -10
40 -5 0 -10 18 -10 39 0 22 -5 42 -12 44 -10 4 -10 8 1 15 12 9 12 13 -2 26
-24 24 -27 20 -27 -34z"/>
<path d="M6480 3910 c0 -5 9 -10 20 -10 11 0 20 5 20 10 0 6 -9 10 -20 10 -11
0 -20 -4 -20 -10z"/>
<path d="M6460 3870 c0 -5 5 -10 10 -10 6 0 10 5 10 10 0 6 -4 10 -10 10 -5 0
-10 -4 -10 -10z"/>
<path d="M6360 3850 c0 -5 9 -10 20 -10 11 0 20 5 20 10 0 6 -9 10 -20 10 -11
0 -20 -4 -20 -10z"/>
<path d="M7000 3832 c0 -4 9 -14 20 -22 11 -8 20 -21 20 -30 0 -9 9 -22 20
-30 12 -8 20 -26 20 -42 0 -19 5 -28 15 -28 19 0 65 -44 65 -62 0 -8 9 -20 20
-28 11 -8 20 -22 20 -32 0 -10 5 -18 10 -18 6 0 10 -7 10 -16 0 -20 24 -44 44
-44 9 0 16 -8 16 -20 0 -13 7 -20 20 -20 11 0 20 -4 20 -10 0 -5 5 -10 10 -10
22 0 8 34 -30 70 -26 25 -40 47 -40 64 0 14 -4 26 -10 26 -5 0 -10 -4 -10 -10
0 -5 -4 -10 -10 -10 -5 0 -10 7 -10 16 0 9 -13 29 -30 44 -16 15 -30 33 -30
40 0 7 -13 25 -30 40 -16 15 -30 33 -30 39 0 11 -84 101 -95 101 -3 0 -5 -4
-5 -8z"/>
<path d="M6760 3760 c0 -11 -4 -20 -10 -20 -5 0 -10 -22 -10 -50 0 -27 -4 -50
-10 -50 -5 0 -10 -9 -10 -20 0 -11 -4 -20 -10 -20 -5 0 -10 -18 -10 -40 0 -22
-4 -40 -10 -40 -5 0 -10 -18 -10 -40 0 -22 -4 -40 -10 -40 -5 0 -10 -13 -10
-30 0 -16 -4 -30 -10 -30 -5 0 -10 -9 -10 -20 0 -11 -4 -20 -10 -20 -5 0 -10
-18 -10 -40 0 -22 -4 -40 -10 -40 -5 0 -10 -18 -10 -40 0 -38 -2 -40 -30 -40
-16 0 -30 -4 -30 -10 0 -5 -13 -10 -30 -10 -16 0 -30 -4 -30 -10 0 -22 -34 -8
-70 30 -21 22 -46 40 -54 40 -9 0 -16 5 -16 10 0 6 -4 10 -10 10 -5 0 -10 -18
-10 -40 0 -22 5 -40 10 -40 6 0 10 -9 10 -20 0 -12 7 -20 16 -20 35 0 44 -26
44 -124 0 -85 -2 -96 -18 -96 -10 0 -24 -9 -32 -20 -8 -11 -22 -20 -32 -20
-10 0 -18 -4 -18 -10 0 -5 -9 -10 -20 -10 -11 0 -20 -4 -20 -10 0 -5 -8 -10
-18 -10 -10 0 -24 -9 -32 -20 -8 -11 -22 -20 -32 -20 -11 0 -18 -7 -18 -20 0
-12 -7 -20 -16 -20 -20 0 -44 -24 -44 -44 0 -9 -4 -16 -10 -16 -5 0 -10 -4
-10 -10 0 -18 55 -11 70 10 8 11 22 20 32 20 10 0 18 5 18 10 0 6 7 10 16 10
9 0 29 14 44 30 15 17 38 30 50 30 25 0 50 22 50 44 0 19 16 21 24 4 5 -10 7
-10 12 0 7 14 64 17 64 2 0 -5 9 -10 20 -10 11 0 20 -4 20 -10 0 -5 14 -10 30
-10 17 0 30 -4 30 -10 0 -5 16 -10 36 -10 42 0 64 -19 64 -54 0 -14 5 -26 10
-26 6 0 10 -9 10 -20 0 -13 7 -20 20 -20 16 0 20 -7 20 -30 0 -16 5 -30 10
-30 6 0 10 -17 10 -38 0 -26 6 -42 20 -52 28 -20 25 -37 -10 -70 -16 -15 -30
-35 -30 -44 0 -9 -4 -16 -10 -16 -5 0 -10 -7 -10 -16 0 -42 -13 -44 -340 -44
-257 0 -314 3 -326 14 -8 8 -14 20 -14 26 0 6 -16 26 -35 45 -37 37 -85 48
-85 19 0 -8 -18 -33 -40 -54 -22 -21 -40 -46 -40 -54 0 -9 -8 -16 -20 -16 -13
0 -20 -7 -20 -20 0 -11 -7 -20 -15 -20 -20 0 -65 -44 -65 -64 0 -8 -6 -16 -12
-19 -9 -3 -6 -11 10 -24 22 -21 30 -53 12 -53 -5 0 -10 -9 -10 -20 0 -11 -4
-20 -10 -20 -5 0 -10 -9 -10 -20 0 -11 -4 -20 -10 -20 -5 0 -10 -9 -10 -20 0
-11 -4 -20 -10 -20 -5 0 -10 -8 -10 -18 0 -10 -9 -24 -20 -32 -11 -8 -20 -22
-20 -32 0 -10 -4 -18 -10 -18 -5 0 -10 -8 -10 -18 0 -10 -9 -24 -20 -32 -11
-8 -20 -22 -20 -32 0 -10 -4 -18 -10 -18 -5 0 -10 -9 -10 -20 0 -11 -4 -20
-10 -20 -5 0 -10 -9 -10 -20 0 -11 -4 -20 -10 -20 -5 0 -10 -8 -10 -18 0 -10
-9 -24 -20 -32 -11 -8 -20 -22 -20 -32 0 -10 -4 -18 -10 -18 -5 0 -10 -9 -10
-20 0 -11 -4 -20 -10 -20 -5 0 -10 -9 -10 -20 0 -15 -7 -20 -26 -20 -42 0 -54
21 -54 94 0 37 -4 66 -10 66 -6 0 -10 33 -10 80 0 47 -4 80 -10 80 -5 0 -10 9
-10 20 0 24 -43 28 -66 6 -16 -17 -19 -66 -4 -66 6 0 10 -30 10 -70 0 -40 4
-70 10 -70 6 0 10 -33 10 -80 0 -73 -2 -80 -20 -80 -11 0 -20 -4 -20 -10 0
-18 -55 -11 -70 10 -8 11 -21 20 -28 20 -8 0 -27 14 -42 30 -15 17 -34 30 -42
30 -7 0 -20 9 -28 20 -8 11 -21 20 -30 20 -9 0 -22 9 -30 20 -8 11 -21 20 -28
20 -8 0 -27 14 -42 30 -21 23 -37 30 -64 30 -20 0 -36 -4 -36 -10 0 -5 -18
-10 -40 -10 -32 0 -40 -4 -40 -18 0 -10 9 -24 20 -32 11 -8 20 -22 20 -32 0
-10 5 -18 10 -18 6 0 10 -9 10 -20 0 -11 5 -20 10 -20 6 0 10 -9 10 -20 0 -11
5 -20 10 -20 6 0 10 -9 10 -20 0 -11 5 -20 10 -20 6 0 10 -8 10 -18 0 -10 9
-24 20 -32 11 -8 20 -22 20 -32 0 -10 5 -18 10 -18 6 0 10 -9 10 -20 0 -11 5
-20 10 -20 6 0 10 -9 10 -20 0 -11 5 -20 10 -20 6 0 10 -9 10 -20 0 -11 5 -20
10 -20 6 0 10 -9 10 -20 0 -11 5 -20 10 -20 6 0 10 -9 10 -20 0 -11 5 -20 10
-20 6 0 10 -9 10 -20 0 -11 5 -20 10 -20 6 0 10 -9 10 -20 0 -11 5 -20 10 -20
6 0 10 -9 10 -20 0 -11 5 -20 10 -20 6 0 10 -9 10 -20 0 -11 5 -20 10 -20 6 0
10 -9 10 -20 0 -11 5 -20 10 -20 6 0 10 -8 10 -18 0 -10 9 -24 20 -32 11 -8
20 -22 20 -32 0 -10 5 -18 10 -18 6 0 10 -9 10 -20 0 -11 5 -20 10 -20 6 0 10
-9 10 -20 0 -11 5 -20 10 -20 6 0 10 -9 10 -20 0 -11 5 -20 10 -20 6 0 10 -9
10 -20 0 -11 -2 -20 -5 -20 -3 0 -221 216 -485 480 l-480 480 -75 0 c-43 0
-75 4 -75 10 0 6 -22 10 -50 10 -27 0 -50 -4 -50 -10 0 -5 -9 -10 -20 -10 -11
0 -20 -4 -20 -10 0 -5 -16 -10 -36 -10 -29 0 -44 8 -84 50 -33 34 -57 50 -74
50 -14 0 -26 5 -26 10 0 6 -18 10 -40 10 -22 0 -40 -4 -40 -10 0 -5 -8 -10
-18 -10 -10 0 -24 -9 -32 -20 -8 -11 -22 -20 -32 -20 -10 0 -18 -7 -18 -16 0
-8 -6 -22 -14 -30 -17 -16 -46 -19 -46 -4 0 6 -13 10 -30 10 -16 0 -30 5 -30
10 0 6 -9 10 -20 10 -11 0 -20 5 -20 10 0 6 -13 10 -30 10 -16 0 -30 5 -30 10
0 6 -9 10 -20 10 -11 0 -20 5 -20 10 0 6 -13 10 -30 10 -16 0 -30 5 -30 10 0
6 -13 10 -30 10 -16 0 -30 5 -30 10 0 6 -9 10 -20 10 -17 0 -20 -7 -20 -50 0
-43 3 -50 20 -50 11 0 20 -4 20 -10 0 -5 14 -10 30 -10 17 0 30 -4 30 -10 0
-5 14 -10 30 -10 17 0 30 -4 30 -10 0 -5 14 -10 30 -10 17 0 30 -4 30 -10 0
-5 9 -10 20 -10 11 0 20 -4 20 -10 0 -5 14 -10 30 -10 17 0 30 -4 30 -10 0 -5
14 -10 30 -10 29 0 30 -1 30 -50 0 -27 5 -50 10 -50 6 0 10 -7 10 -15 0 -20
45 -65 65 -65 8 0 15 -4 15 -10 0 -5 9 -10 20 -10 11 0 20 -4 20 -10 0 -5 18
-10 40 -10 22 0 40 5 40 10 0 6 14 10 30 10 17 0 30 5 30 10 0 6 7 10 15 10
25 0 65 46 65 75 0 14 5 25 10 25 6 0 10 14 10 30 0 23 4 30 20 30 11 0 20 5
20 10 0 6 23 10 50 10 28 0 50 5 50 10 0 6 18 10 40 10 22 0 40 5 40 10 0 22
53 9 80 -20 15 -16 35 -30 44 -30 9 0 16 -7 16 -15 0 -17 204 -225 220 -225
14 0 140 -127 140 -140 0 -16 47 -60 65 -60 8 0 15 -7 15 -15 0 -17 84 -105
100 -105 5 0 107 -97 225 -215 166 -165 215 -221 215 -240 0 -14 -4 -25 -10
-25 -6 0 -10 -30 -10 -70 0 -40 4 -70 10 -70 6 0 10 -9 10 -20 0 -11 5 -20 10
-20 6 0 10 -9 10 -20 0 -13 7 -20 18 -20 10 0 24 -9 32 -20 8 -12 26 -20 42
-20 15 0 28 -4 28 -10 0 -6 27 -10 60 -10 33 0 60 4 60 10 0 6 9 10 20 10 11
0 20 5 20 10 0 6 7 10 16 10 19 0 44 24 44 42 0 8 9 20 20 28 14 10 20 26 20
52 0 21 5 38 10 38 6 0 10 14 10 30 0 17 -4 30 -10 30 -5 0 -10 11 -10 25 0
35 -100 135 -135 135 -14 0 -25 5 -25 10 0 6 -9 10 -20 10 -19 0 -20 7 -20
150 0 93 -4 150 -10 150 -6 0 -10 32 -10 76 0 74 11 104 40 104 14 0 60 46 60
60 0 30 30 40 114 40 51 0 86 -4 86 -10 0 -6 40 -10 100 -10 60 0 100 -4 100
-10 0 -6 37 -10 90 -10 53 0 90 -4 90 -10 0 -6 37 -10 90 -10 53 0 90 -4 90
-10 0 -5 14 -10 30 -10 27 0 30 -3 30 -30 0 -16 5 -30 10 -30 6 0 10 -7 10
-15 0 -20 85 -105 105 -105 8 0 15 -4 15 -10 0 -6 37 -10 90 -10 53 0 90 4 90
10 0 6 7 10 15 10 20 0 105 85 105 105 0 8 5 15 10 15 6 0 10 33 10 80 0 47
-4 80 -10 80 -5 0 -10 7 -10 16 0 8 -22 37 -50 64 -46 45 -64 80 -40 80 6 0
10 18 10 40 0 22 5 40 10 40 6 0 10 14 10 30 0 17 5 30 10 30 6 0 10 14 10 30
0 17 5 30 10 30 6 0 10 14 10 30 0 17 5 30 10 30 6 0 10 14 10 30 0 17 5 30
10 30 6 0 10 14 10 30 0 17 5 30 10 30 6 0 10 22 10 48 0 36 5 51 20 62 12 8
20 26 20 42 0 15 5 28 10 28 6 0 10 21 10 46 0 60 16 74 82 74 42 0 57 4 68
20 8 11 20 20 28 20 18 0 42 25 42 44 0 9 5 16 10 16 6 0 10 30 10 70 0 40 -4
70 -10 70 -5 0 -10 9 -10 20 0 11 -4 20 -10 20 -5 0 -10 17 -10 38 0 26 6 42
20 52 11 8 20 21 20 30 0 9 9 22 20 30 11 8 20 22 20 32 0 10 5 18 10 18 6 0
10 8 10 18 0 10 9 24 20 32 11 8 20 21 20 30 0 9 9 22 20 30 11 8 20 22 20 32
0 10 5 18 10 18 6 0 10 8 10 18 0 10 9 24 20 32 11 8 20 22 20 32 0 10 5 18
10 18 6 0 10 9 10 20 0 11 5 20 10 20 6 0 10 9 10 20 0 11 5 20 10 20 6 0 10
16 10 36 0 36 29 81 38 56 5 -16 39 -16 46 1 5 10 7 10 12 0 9 -20 24 -15 24
7 0 11 -4 20 -10 20 -5 0 -10 9 -10 20 0 13 -7 20 -20 20 -11 0 -20 5 -20 10
0 6 -12 10 -26 10 -41 0 -54 22 -54 90 0 40 -5 66 -14 76 -23 22 -26 17 -26
-36 0 -43 -3 -50 -20 -50 -11 0 -20 -4 -20 -10 0 -5 -9 -10 -20 -10 -13 0 -20
-7 -20 -20 0 -23 -34 -28 -44 -7 -5 10 -7 10 -12 0 -3 -7 -14 -13 -25 -13 -10
0 -19 -4 -19 -10 0 -14 -38 -12 -43 3 -3 8 -11 5 -24 -10 -17 -19 -31 -23 -77
-23 -31 0 -56 -4 -56 -10 0 -5 -18 -10 -39 -10 -22 0 -42 -6 -45 -12 -5 -10
-7 -10 -12 0 -3 6 -19 12 -35 12 -20 0 -29 5 -29 16 0 20 -24 44 -44 44 -13 0
-16 12 -16 60 0 33 4 60 10 60 6 0 10 33 10 80 0 73 2 80 20 80 11 0 20 5 20
10 0 6 -4 10 -10 10 -5 0 -10 14 -10 30 0 23 4 30 20 30 13 0 20 7 20 20 0 11
-4 20 -10 20 -5 0 -10 14 -10 30 0 23 4 30 20 30 11 0 20 5 20 10 0 6 -4 10
-10 10 -5 0 -10 9 -10 20 0 11 5 20 10 20 6 0 10 27 10 60 0 33 -4 60 -10 60
-5 0 -10 -9 -10 -20z m546 -614 c16 -17 20 -126 4 -126 -5 0 -10 -7 -10 -16 0
-9 -13 -29 -30 -44 -16 -15 -30 -34 -30 -42 0 -7 -9 -20 -20 -28 -11 -8 -20
-22 -20 -32 0 -10 -4 -18 -10 -18 -5 0 -10 -8 -10 -18 0 -10 -9 -24 -20 -32
-12 -8 -20 -26 -20 -42 0 -21 -5 -28 -20 -28 -13 0 -20 -7 -20 -18 0 -10 -9
-24 -20 -32 -11 -8 -20 -26 -20 -40 0 -14 -9 -32 -20 -40 -11 -8 -20 -22 -20
-32 0 -11 -7 -18 -20 -18 -16 0 -20 -7 -20 -30 0 -28 -2 -30 -40 -30 -22 0
-40 5 -40 10 0 6 -13 10 -30 10 -23 0 -30 4 -30 20 0 11 -4 20 -10 20 -5 0
-10 9 -10 20 0 13 -7 20 -20 20 -17 0 -20 7 -20 40 0 22 -4 40 -10 40 -5 0
-10 9 -10 20 0 11 -4 20 -10 20 -5 0 -10 7 -10 16 0 9 -10 25 -22 36 -19 16
-20 21 -8 29 13 8 13 10 0 18 -12 8 -11 13 8 29 12 11 22 27 22 36 0 9 5 16
10 16 6 0 10 9 10 20 0 11 5 20 10 20 6 0 10 18 10 40 0 38 2 40 30 40 17 0
30 5 30 10 0 6 14 10 30 10 17 0 30 5 30 10 0 6 18 10 40 10 22 0 40 5 40 10
0 6 14 10 30 10 17 0 30 5 30 10 0 6 18 10 40 10 22 0 40 5 40 10 0 6 14 10
30 10 17 0 30 5 30 10 0 6 23 10 50 10 43 0 50 3 50 20 0 24 6 25 26 6z m100
-60 c8 -8 14 -22 14 -30 0 -19 -36 -22 -44 -3 -5 10 -7 10 -12 0 -8 -18 -24
-16 -24 2 0 20 21 44 38 45 7 0 20 -6 28 -14z m-691 -871 c25 -24 45 -51 45
-60 0 -8 5 -15 10 -15 6 0 10 -9 10 -20 0 -11 -4 -20 -10 -20 -5 0 -10 -13
-10 -30 0 -16 -4 -30 -10 -30 -5 0 -10 -18 -10 -40 0 -22 -4 -40 -10 -40 -5 0
-10 -13 -10 -30 0 -16 -4 -30 -10 -30 -5 0 -10 -13 -10 -30 0 -16 -4 -30 -10
-30 -5 0 -10 -13 -10 -30 0 -16 -4 -30 -10 -30 -5 0 -10 -13 -10 -30 0 -16 -4
-30 -10 -30 -5 0 -10 -13 -10 -30 0 -16 -4 -30 -10 -30 -5 0 -10 -13 -10 -30
0 -16 -4 -30 -10 -30 -5 0 -10 -13 -10 -30 0 -16 -4 -30 -10 -30 -5 0 -10 -16
-10 -36 0 -48 -19 -64 -74 -64 -25 0 -46 -4 -46 -10 0 -5 -9 -10 -20 -10 -13
0 -20 7 -20 18 0 10 -9 24 -20 32 -11 8 -20 21 -20 30 0 9 -9 22 -20 30 -11 8
-20 22 -20 32 0 10 -4 18 -10 18 -5 0 -10 8 -10 18 0 10 -9 24 -20 32 -11 8
-20 21 -20 30 0 9 -9 22 -20 30 -11 8 -20 21 -20 30 0 9 -9 22 -20 30 -11 8
-20 22 -20 32 0 10 -4 18 -10 18 -5 0 -10 8 -10 18 0 10 -9 24 -20 32 -11 8
-20 22 -20 32 0 10 -4 18 -10 18 -5 0 -10 8 -10 18 0 10 -9 24 -20 32 -11 8
-20 21 -20 30 0 9 -9 22 -20 30 -11 8 -20 21 -20 30 0 9 -9 22 -20 30 -11 8
-20 26 -20 40 0 14 9 32 20 40 11 8 20 22 20 32 0 10 5 18 10 18 6 0 10 9 10
20 0 19 7 20 130 20 80 0 130 4 130 10 0 6 65 10 175 10 l176 0 44 -45z m-780
-180 c14 -13 25 -30 25 -37 0 -8 9 -20 20 -28 11 -8 20 -21 20 -30 0 -9 9 -22
20 -30 11 -8 20 -22 20 -32 0 -10 5 -18 10 -18 6 0 10 -8 10 -18 0 -10 9 -24
20 -32 11 -8 20 -21 20 -30 0 -9 9 -22 20 -30 11 -8 20 -21 20 -30 0 -9 9 -22
20 -30 11 -8 20 -21 20 -30 0 -9 9 -22 20 -30 11 -8 20 -21 20 -30 0 -9 9 -22
20 -30 11 -8 20 -22 20 -32 0 -10 5 -18 10 -18 6 0 10 -8 10 -18 0 -10 9 -24
20 -32 11 -8 20 -21 20 -30 0 -9 9 -22 20 -30 11 -8 20 -21 20 -30 0 -9 -9
-22 -20 -30 -11 -8 -20 -20 -20 -28 0 -33 -27 -42 -124 -42 -57 0 -96 4 -96
10 0 6 -43 10 -110 10 -67 0 -110 4 -110 10 0 6 -30 10 -70 10 -40 0 -70 4
-70 10 0 6 -37 10 -90 10 -53 0 -90 4 -90 10 0 6 -7 10 -16 10 -19 0 -44 24
-44 42 0 8 -9 20 -20 28 -21 15 -28 70 -10 70 6 0 10 8 10 18 0 10 9 24 20 32
11 8 20 22 20 32 0 10 5 18 10 18 6 0 10 8 10 18 0 10 9 24 20 32 11 8 20 22
20 32 0 10 5 18 10 18 6 0 10 9 10 20 0 11 5 20 10 20 6 0 10 9 10 20 0 11 5
20 10 20 6 0 10 8 10 18 0 10 9 24 20 32 11 8 20 22 20 32 0 10 5 18 10 18 6
0 10 9 10 20 0 11 5 20 10 20 6 0 10 8 10 18 0 10 9 24 20 32 11 8 20 22 20
32 0 10 5 18 10 18 6 0 10 9 10 20 0 18 7 20 65 20 57 0 69 -3 90 -25z m-1045
-475 c8 -11 21 -20 30 -20 9 0 22 -9 30 -20 8 -11 21 -20 30 -20 9 0 22 -9 30
-20 8 -11 21 -20 30 -20 9 0 22 -9 30 -20 8 -11 22 -20 32 -20 16 0 18 -10 18
-80 0 -47 4 -80 10 -80 6 0 10 -7 10 -15 0 -26 86 -105 115 -105 23 0 25 -4
25 -40 0 -22 5 -40 10 -40 6 0 10 -47 10 -120 0 -73 4 -120 10 -120 6 0 10
-27 10 -60 0 -33 -3 -60 -6 -60 -11 0 -34 29 -34 44 0 9 -4 16 -10 16 -5 0
-10 9 -10 20 0 11 -4 20 -10 20 -5 0 -10 9 -10 20 0 11 -4 20 -10 20 -5 0 -10
9 -10 20 0 11 -4 20 -10 20 -5 0 -10 9 -10 20 0 11 -4 20 -10 20 -5 0 -10 9
-10 20 0 11 -4 20 -10 20 -5 0 -10 9 -10 20 0 11 -4 20 -10 20 -5 0 -10 9 -10
20 0 11 -4 20 -10 20 -5 0 -10 8 -10 18 0 10 -9 24 -20 32 -11 8 -20 22 -20
32 0 10 -4 18 -10 18 -5 0 -10 9 -10 20 0 11 -4 20 -10 20 -5 0 -10 9 -10 20
0 11 -4 20 -10 20 -5 0 -10 9 -10 20 0 11 -4 20 -10 20 -5 0 -10 9 -10 20 0
11 -4 20 -10 20 -5 0 -10 9 -10 20 0 11 -4 20 -10 20 -5 0 -10 8 -10 18 0 10
-9 24 -20 32 -11 8 -20 22 -20 32 0 10 -4 18 -10 18 -5 0 -10 9 -10 20 0 11
-4 20 -10 20 -5 0 -10 9 -10 20 0 11 -4 20 -10 20 -5 0 -10 9 -10 20 0 11 -4
20 -10 20 -5 0 -10 5 -10 10 0 18 35 11 50 -10z"/>
<path d="M5720 3470 c0 -40 -4 -70 -10 -70 -5 0 -10 -22 -10 -50 0 -27 5 -50
10 -50 6 0 10 18 10 40 0 22 5 40 10 40 6 0 10 33 10 80 0 47 -4 80 -10 80 -6
0 -10 -30 -10 -70z"/>
<path d="M7420 3500 c0 -11 5 -20 10 -20 6 0 10 9 10 20 0 11 -4 20 -10 20 -5
0 -10 -9 -10 -20z"/>
<path d="M7620 3360 c0 -11 5 -20 10 -20 6 0 10 9 10 20 0 11 -4 20 -10 20 -5
0 -10 -9 -10 -20z"/>
<path d="M6120 3310 c0 -5 5 -10 10 -10 6 0 10 5 10 10 0 6 -4 10 -10 10 -5 0
-10 -4 -10 -10z"/>
<path d="M5660 3260 c0 -13 7 -20 20 -20 24 0 25 6 6 26 -20 19 -26 18 -26 -6z"/>
<path d="M7660 3270 c0 -5 5 -10 10 -10 6 0 10 5 10 10 0 6 -4 10 -10 10 -5 0
-10 -4 -10 -10z"/>
<path d="M6100 3240 c0 -11 -4 -20 -10 -20 -5 0 -10 -13 -10 -30 0 -16 -4 -30
-10 -30 -5 0 -10 -13 -10 -30 0 -16 5 -30 10 -30 6 0 10 9 10 20 0 11 5 20 10
20 6 0 10 14 10 30 0 17 5 30 10 30 6 0 10 14 10 30 0 17 -4 30 -10 30 -5 0
-10 -9 -10 -20z"/>
<path d="M7340 3210 c0 -5 5 -10 10 -10 6 0 10 5 10 10 0 6 -4 10 -10 10 -5 0
-10 -4 -10 -10z"/>
<path d="M5640 3170 c0 -5 5 -10 10 -10 6 0 10 5 10 10 0 6 -4 10 -10 10 -5 0
-10 -4 -10 -10z"/>
<path d="M7660 3170 c0 -5 5 -10 10 -10 6 0 10 5 10 10 0 6 -4 10 -10 10 -5 0
-10 -4 -10 -10z"/>
<path d="M7553 3145 c-7 -8 -13 -21 -13 -30 0 -8 -4 -15 -10 -15 -5 0 -10 -4
-10 -10 0 -5 14 -10 30 -10 17 0 30 -4 30 -10 0 -5 14 -10 30 -10 23 0 30 4
30 20 0 11 5 20 10 20 15 0 12 29 -4 46 -19 18 -77 18 -93 -1z"/>
<path d="M5620 3110 c0 -5 5 -10 10 -10 6 0 10 5 10 10 0 6 -4 10 -10 10 -5 0
-10 -4 -10 -10z"/>
<path d="M7520 3050 c0 -5 9 -10 20 -10 11 0 20 5 20 10 0 6 -9 10 -20 10 -11
0 -20 -4 -20 -10z"/>
<path d="M5700 3030 c0 -5 5 -10 10 -10 6 0 10 5 10 10 0 6 -4 10 -10 10 -5 0
-10 -4 -10 -10z"/>
<path d="M5973 2905 c-7 -8 -13 -21 -13 -30 0 -11 -11 -15 -40 -15 -39 0 -53
-12 -27 -24 10 -5 10 -7 0 -12 -7 -3 -13 -23 -13 -45 0 -21 -4 -39 -10 -39 -5
0 -10 -9 -10 -20 0 -16 7 -20 30 -20 27 0 30 3 30 30 0 17 5 30 10 30 6 0 10
8 10 18 0 10 9 24 20 32 12 8 20 26 20 42 0 15 5 28 10 28 6 0 10 9 10 20 0
23 -10 25 -27 5z"/>
<path d="M5920 2890 c0 -5 5 -10 10 -10 6 0 10 5 10 10 0 6 -4 10 -10 10 -5 0
-10 -4 -10 -10z"/>
<path d="M5840 2670 c0 -5 9 -10 20 -10 11 0 20 5 20 10 0 6 -9 10 -20 10 -11
0 -20 -4 -20 -10z"/>
</g>
</svg>
